<?xml version="1.0" encoding="UTF-8" ?>
<!DOCTYPE svg PUBLIC "-//W3C//DTD SVG 1.1//EN" "http://www.w3.org/Graphics/SVG/1.1/DTD/svg11.dtd">
<svg width="2314pt" height="500pt" viewBox="0 0 2314 500" version="1.1" xmlns="http://www.w3.org/2000/svg">
<g id="#6b7280ff">
<path fill="#6b7280" opacity="1.00" d=" M 284.39 37.63 C 286.82 36.72 289.46 37.02 292.00 36.97 C 292.00 179.32 292.00 321.68 292.00 464.03 C 289.45 463.98 286.83 464.26 284.38 463.38 C 283.38 463.03 282.38 462.65 281.41 462.25 C 280.38 461.98 279.37 461.66 278.38 461.30 C 277.35 460.96 276.34 460.58 275.35 460.17 C 274.93 460.09 274.07 459.94 273.65 459.86 C 272.27 459.17 270.78 458.83 269.38 458.25 C 268.35 457.94 267.34 457.58 266.36 457.19 C 265.93 457.10 265.07 456.91 264.64 456.82 C 263.65 456.40 262.64 456.03 261.62 455.70 C 260.62 455.32 259.62 454.99 258.60 454.72 C 257.62 454.34 256.62 454.03 255.61 453.77 C 254.23 453.13 252.71 452.84 251.35 452.15 C 250.93 452.06 250.08 451.88 249.65 451.79 C 247.90 451.20 246.10 450.80 244.35 450.23 C 243.93 450.10 243.09 449.85 242.67 449.72 C 240.58 449.12 238.41 448.86 236.33 448.27 C 235.91 448.15 235.06 447.91 234.64 447.79 C 233.65 447.40 232.64 447.05 231.63 446.74 C 230.25 446.12 228.75 445.89 227.39 445.24 C 226.37 444.97 225.37 444.64 224.40 444.28 C 223.37 443.99 222.37 443.67 221.39 443.29 C 220.36 442.96 219.35 442.59 218.36 442.18 C 217.93 442.09 217.07 441.91 216.64 441.82 C 215.65 441.40 214.64 441.03 213.62 440.71 C 212.63 440.32 211.62 439.99 210.60 439.70 C 208.89 439.11 207.09 438.87 205.38 438.32 C 204.35 437.97 203.35 437.59 202.36 437.17 C 201.93 437.08 201.07 436.91 200.64 436.82 C 199.64 436.40 198.64 436.03 197.62 435.70 C 196.62 435.33 195.62 435.01 194.60 434.75 C 193.61 434.34 192.61 433.97 191.60 433.64 C 189.53 433.09 187.39 432.90 185.32 432.34 C 183.98 432.00 182.64 431.67 181.32 431.24 C 180.90 431.14 180.07 430.94 179.65 430.84 C 178.28 430.15 176.77 429.87 175.39 429.23 C 174.38 428.96 173.38 428.65 172.40 428.28 C 171.38 428.00 170.38 427.66 169.40 427.27 C 168.38 426.99 167.38 426.65 166.40 426.27 C 165.38 425.99 164.37 425.66 163.38 425.30 C 162.36 424.96 161.35 424.59 160.36 424.18 C 159.93 424.09 159.07 423.90 158.65 423.81 C 157.65 423.41 156.65 423.05 155.63 422.74 C 154.25 422.12 152.75 421.88 151.39 421.24 C 150.37 420.97 149.37 420.65 148.39 420.30 C 147.36 419.97 146.35 419.60 145.36 419.19 C 144.94 419.08 144.09 418.87 143.67 418.76 C 142.36 418.32 141.01 417.99 139.68 417.66 C 137.57 417.12 135.40 416.89 133.33 416.27 C 132.90 416.15 132.06 415.92 131.64 415.80 C 130.65 415.39 129.64 415.03 128.61 414.71 C 127.62 414.33 126.62 414.00 125.60 413.72 C 124.62 413.34 123.62 413.02 122.61 412.76 C 121.25 412.10 119.74 411.87 118.37 411.26 C 117.35 410.94 116.34 410.58 115.35 410.19 C 114.93 410.10 114.07 409.91 113.64 409.82 C 112.65 409.40 111.64 409.03 110.62 408.70 C 109.63 408.33 108.62 408.00 107.60 407.73 C 106.62 407.34 105.62 407.00 104.60 406.72 C 103.62 406.33 102.62 406.00 101.60 405.73 C 100.61 405.34 99.61 404.99 98.60 404.70 C 96.86 404.15 95.07 403.81 93.34 403.25 C 92.93 403.12 92.09 402.86 91.67 402.73 C 90.35 402.31 89.00 402.00 87.65 401.70 C 85.89 401.18 84.09 400.80 82.35 400.23 C 81.92 400.13 81.07 399.91 80.64 399.80 C 79.65 399.41 78.65 399.05 77.63 398.73 C 76.25 398.12 74.75 397.88 73.37 397.26 C 72.35 396.94 71.34 396.59 70.35 396.19 C 69.93 396.09 69.07 395.89 68.64 395.79 C 66.89 395.19 65.07 394.78 63.32 394.17 C 62.74 394.11 61.58 393.98 61.00 393.92 C 61.03 298.97 60.95 204.02 61.04 109.08 C 60.81 107.04 63.07 107.11 64.41 106.82 C 65.81 106.24 67.24 105.72 68.65 105.14 C 69.07 105.06 69.93 104.90 70.35 104.82 C 71.35 104.42 72.35 104.06 73.37 103.73 C 74.76 103.13 76.25 102.86 77.63 102.26 C 78.65 101.94 79.65 101.59 80.65 101.20 C 81.07 101.09 81.92 100.88 82.35 100.77 C 84.09 100.21 85.89 99.81 87.64 99.28 C 88.99 99.00 90.34 98.71 91.67 98.33 C 93.01 98.00 94.36 97.68 95.68 97.25 C 96.10 97.14 96.94 96.92 97.36 96.81 C 98.35 96.40 99.36 96.03 100.38 95.71 C 101.37 95.33 102.38 95.01 103.41 94.73 C 104.38 94.34 105.38 94.00 106.39 93.71 C 107.37 93.34 108.37 93.03 109.39 92.78 C 110.77 92.13 112.28 91.84 113.65 91.15 C 114.07 91.06 114.91 90.89 115.33 90.80 C 117.39 89.94 119.76 89.91 121.68 88.67 C 122.56 88.28 123.47 87.95 124.40 87.69 C 126.11 87.13 127.90 86.88 129.60 86.30 C 130.62 86.01 131.62 85.67 132.61 85.29 C 133.64 84.96 134.65 84.60 135.64 84.20 C 136.06 84.08 136.90 83.84 137.32 83.73 C 139.38 83.09 141.53 82.88 143.63 82.38 C 144.63 82.00 145.64 81.59 146.63 81.16 C 147.06 81.08 147.92 80.91 148.35 80.83 C 149.35 80.41 150.36 80.03 151.39 79.70 C 152.37 79.33 153.37 79.01 154.40 78.73 C 155.38 78.34 156.39 78.00 157.41 77.70 C 159.14 77.16 160.93 76.81 162.65 76.23 C 163.08 76.12 163.93 75.91 164.35 75.80 C 165.35 75.41 166.35 75.06 167.38 74.75 C 168.78 74.16 170.28 73.81 171.65 73.14 C 172.08 73.07 172.93 72.93 173.36 72.86 C 174.71 72.16 176.23 71.86 177.61 71.23 C 178.62 70.97 179.62 70.65 180.60 70.28 C 181.62 70.00 182.62 69.67 183.61 69.29 C 184.63 68.96 185.64 68.60 186.64 68.20 C 187.06 68.08 187.90 67.85 188.32 67.73 C 190.38 67.10 192.53 66.88 194.62 66.38 C 195.63 66.00 196.64 65.59 197.64 65.16 C 198.07 65.08 198.93 64.91 199.36 64.83 C 200.35 64.41 201.36 64.03 202.38 63.68 C 204.13 63.15 205.93 62.81 207.66 62.23 C 208.09 62.13 208.93 61.94 209.35 61.84 C 210.72 61.16 212.22 60.85 213.63 60.25 C 214.65 59.94 215.65 59.59 216.64 59.19 C 217.07 59.10 217.93 58.91 218.36 58.82 C 219.35 58.41 220.36 58.04 221.38 57.70 C 222.37 57.33 223.38 57.01 224.40 56.73 C 225.38 56.34 226.38 56.01 227.40 55.73 C 228.38 55.33 229.38 55.00 230.40 54.72 C 231.38 54.34 232.37 54.03 233.39 53.77 C 234.77 53.13 236.28 52.84 237.64 52.16 C 238.06 52.06 238.90 51.84 239.32 51.74 C 241.37 51.09 243.53 50.88 245.62 50.38 C 246.63 50.00 247.64 49.60 248.64 49.17 C 249.07 49.07 249.92 48.88 250.35 48.78 C 252.10 48.20 253.90 47.80 255.65 47.22 C 256.07 47.12 256.93 46.91 257.36 46.81 C 258.35 46.40 259.36 46.03 260.38 45.70 C 261.37 45.33 262.37 45.00 263.40 44.72 C 264.37 44.35 265.37 44.03 266.39 43.76 C 267.74 43.11 269.25 42.90 270.61 42.23 C 271.62 41.97 272.63 41.66 273.62 41.30 C 274.64 40.97 275.65 40.59 276.64 40.18 C 277.07 40.09 277.93 39.91 278.36 39.82 C 279.35 39.41 280.36 39.04 281.38 38.72 C 282.37 38.33 283.37 37.97 284.39 37.63 M 226.25 140.68 C 224.24 140.86 222.21 141.02 220.26 141.60 C 218.58 141.92 216.88 142.14 215.25 142.66 C 213.24 142.85 211.21 143.02 209.27 143.60 C 207.59 143.92 205.88 144.13 204.25 144.67 C 202.24 144.85 200.21 145.02 198.27 145.60 C 196.59 145.92 194.88 146.13 193.25 146.66 C 191.23 146.85 189.21 147.02 187.26 147.60 C 185.58 147.91 183.88 148.13 182.26 148.66 C 180.23 148.87 178.17 148.97 176.23 149.67 C 174.22 149.87 172.19 150.01 170.25 150.62 C 168.58 150.93 166.88 151.12 165.26 151.67 C 163.25 151.85 161.22 152.01 159.27 152.59 C 157.59 152.91 155.89 153.13 154.25 153.66 C 152.23 153.86 150.17 153.96 148.25 154.66 C 146.24 154.85 144.21 155.00 142.28 155.60 C 140.60 155.92 138.89 156.12 137.26 156.66 C 135.24 156.86 133.18 156.94 131.27 157.67 C 129.25 157.86 127.21 157.99 125.28 158.62 C 123.59 158.92 121.88 159.11 120.25 159.67 C 118.23 159.86 116.19 160.01 114.25 160.61 C 112.57 160.92 110.88 161.13 109.26 161.67 C 107.24 161.86 105.19 162.01 103.25 162.62 C 101.57 162.90 99.86 163.12 98.26 163.73 C 96.73 163.86 95.20 163.91 93.67 163.96 C 91.41 164.97 89.64 166.69 87.93 168.43 C 87.90 168.89 87.82 169.82 87.78 170.29 C 87.40 171.28 87.02 172.28 86.66 173.29 C 87.93 174.98 89.08 176.76 90.49 178.35 C 91.92 178.03 93.36 177.74 94.76 177.28 C 97.10 177.07 99.55 177.26 101.76 176.28 C 104.09 176.09 106.50 176.21 108.72 175.34 C 110.76 175.10 112.85 175.03 114.79 174.30 C 117.12 174.08 119.55 174.26 121.74 173.29 C 124.08 173.07 126.54 173.27 128.74 172.29 C 131.08 172.07 133.54 172.28 135.73 171.29 C 138.08 171.07 140.54 171.27 142.75 170.29 C 145.09 170.07 147.55 170.28 149.75 169.29 C 152.09 169.09 154.53 169.23 156.75 168.33 C 158.77 168.11 160.84 168.07 162.75 167.30 C 165.10 167.07 167.56 167.28 169.75 166.28 C 172.10 166.07 174.55 166.25 176.76 165.28 C 179.10 165.08 181.52 165.21 183.75 164.33 C 185.77 164.11 187.85 164.06 189.76 163.29 C 192.11 163.07 194.56 163.24 196.77 162.29 C 199.12 162.09 201.54 162.18 203.78 161.33 C 205.78 161.10 207.85 161.07 209.75 160.29 C 212.09 160.07 214.56 160.28 216.76 159.28 C 219.10 159.05 221.58 159.30 223.76 158.23 C 225.62 158.15 227.47 158.05 229.34 158.06 C 230.44 157.38 231.56 156.72 232.68 156.06 C 233.15 156.08 234.09 156.12 234.56 156.15 C 235.59 155.00 236.76 153.91 237.36 152.46 C 237.79 151.32 238.37 150.28 239.10 149.34 C 239.10 147.75 239.07 146.16 239.03 144.58 C 238.10 143.56 237.30 142.44 236.78 141.17 C 233.59 139.39 229.61 139.42 226.25 140.68 M 223.24 191.78 C 219.92 192.11 216.37 191.31 213.25 192.78 C 209.92 193.11 206.36 192.31 203.24 193.78 C 199.91 194.11 196.36 193.31 193.23 194.78 C 189.91 195.10 186.38 194.33 183.26 195.77 C 179.93 196.10 176.40 195.33 173.26 196.76 C 169.94 197.10 166.41 196.34 163.27 197.75 C 159.62 198.18 155.73 197.23 152.27 198.76 C 148.94 199.11 145.40 198.33 142.26 199.76 C 138.61 200.18 134.73 199.22 131.28 200.76 C 127.95 201.10 124.41 200.33 121.27 201.76 C 117.61 202.17 113.72 201.25 110.25 202.76 C 106.93 203.09 103.41 202.36 100.26 203.74 C 97.73 203.94 95.19 203.94 92.65 203.91 C 90.54 204.91 88.80 206.45 87.91 208.66 C 87.89 210.62 87.90 212.59 87.86 214.56 C 89.85 216.62 92.79 219.50 95.71 217.19 C 100.69 216.64 105.95 218.01 110.73 216.26 C 115.70 215.57 120.94 217.04 125.73 215.26 C 131.04 214.53 136.64 216.08 141.77 214.25 C 146.73 213.56 151.97 215.06 156.73 213.24 C 161.70 212.56 166.96 214.05 171.73 212.24 C 176.71 211.59 181.95 213.01 186.76 211.26 C 191.72 210.56 196.96 212.04 201.74 210.25 C 206.70 209.56 211.95 211.05 216.72 209.25 C 221.38 208.68 226.24 209.87 230.75 208.33 C 231.14 208.25 231.92 208.08 232.31 208.00 C 234.61 207.09 236.33 205.30 238.04 203.58 C 238.10 203.12 238.23 202.21 238.29 201.75 C 239.03 200.33 239.29 198.67 238.30 197.28 C 238.23 196.88 238.09 196.08 238.02 195.67 C 237.19 193.47 235.51 191.84 233.36 190.93 C 229.99 191.06 226.40 190.29 223.24 191.78 M 200.25 242.76 C 182.16 243.02 164.06 242.88 145.97 242.90 C 143.06 242.99 139.97 242.45 137.25 243.76 C 122.40 244.01 107.54 243.88 92.68 243.90 C 90.97 244.92 89.26 245.97 87.86 247.42 C 87.90 249.37 87.89 251.33 87.93 253.29 C 88.56 255.81 90.75 257.38 93.31 257.44 C 96.75 258.51 100.40 258.01 103.94 258.09 C 121.37 258.15 138.81 257.94 156.24 258.24 C 159.28 259.65 162.72 258.96 165.94 259.10 C 184.38 259.14 202.82 258.95 221.25 259.24 C 224.53 260.60 228.38 260.47 231.71 259.33 C 232.12 259.25 232.92 259.09 233.32 259.02 C 235.56 258.22 237.13 256.50 238.03 254.34 C 238.10 253.94 238.23 253.13 238.30 252.73 C 239.12 251.33 239.22 249.64 238.29 248.26 C 238.22 247.80 238.08 246.89 238.01 246.43 C 236.87 245.27 235.71 244.14 234.57 242.98 C 234.11 242.90 233.19 242.75 232.73 242.67 C 230.89 241.91 228.89 241.86 226.94 241.87 C 219.96 241.93 212.98 241.93 206.01 241.87 C 204.06 241.88 202.03 241.84 200.25 242.76 M 88.99 285.03 C 88.77 286.66 87.85 288.07 87.11 289.51 C 87.21 290.93 87.84 292.25 88.11 293.65 C 89.20 294.75 90.24 295.89 91.31 297.01 C 92.65 297.07 93.99 297.18 95.33 297.29 C 98.47 298.62 101.95 297.93 105.25 298.24 C 108.71 299.77 112.61 298.82 116.26 299.24 C 119.40 300.67 122.94 299.89 126.27 300.24 C 129.41 301.68 132.95 300.89 136.27 301.24 C 139.39 302.68 142.92 301.89 146.23 302.22 C 149.36 303.68 152.91 302.89 156.23 303.22 C 159.69 304.80 163.60 303.80 167.25 304.24 C 170.39 305.67 173.94 304.89 177.26 305.24 C 180.40 306.67 183.94 305.89 187.27 306.24 C 190.40 307.67 193.93 306.89 197.25 307.23 C 200.70 308.79 204.60 307.80 208.25 308.24 C 211.39 309.67 214.93 308.89 218.26 309.24 C 222.27 311.21 227.00 309.00 230.99 310.97 C 232.22 310.64 233.38 310.08 234.65 309.94 C 236.44 308.32 237.99 306.48 239.10 304.35 C 239.06 303.11 239.06 301.89 239.10 300.67 C 237.84 298.00 235.65 296.02 233.61 293.97 C 233.14 293.90 232.21 293.76 231.75 293.69 C 228.56 292.41 225.07 293.05 221.73 292.76 C 216.96 290.94 211.70 292.44 206.73 291.74 C 201.94 289.96 196.69 291.43 191.72 290.75 C 186.95 288.96 181.71 290.42 176.75 289.75 C 171.97 287.95 166.72 289.43 161.75 288.75 C 156.96 286.96 151.70 288.42 146.73 287.75 C 141.96 285.95 136.71 287.43 131.75 286.76 C 126.64 284.90 121.04 286.48 115.74 285.74 C 110.96 283.97 105.71 285.41 100.74 284.75 C 97.01 283.26 92.69 283.62 88.99 285.03 M 87.85 325.34 C 87.84 325.82 87.81 326.80 87.80 327.29 C 87.41 328.27 87.04 329.27 86.69 330.27 C 88.21 332.83 90.27 334.97 92.39 337.05 C 94.01 337.11 95.64 337.13 97.26 337.25 C 98.86 337.88 100.57 338.09 102.25 338.38 C 104.19 338.99 106.23 339.14 108.25 339.33 C 109.87 339.87 111.58 340.07 113.25 340.39 C 115.20 340.99 117.23 341.13 119.25 341.33 C 121.17 342.02 123.23 342.12 125.25 342.34 C 126.88 342.87 128.59 343.07 130.28 343.40 C 132.21 344.00 134.25 344.14 136.27 344.33 C 138.18 345.05 140.24 345.13 142.25 345.34 C 144.17 346.04 146.22 346.13 148.24 346.34 C 150.23 347.18 152.42 347.10 154.54 347.16 C 155.70 345.95 156.87 344.73 158.07 343.57 C 158.06 341.52 158.11 339.47 158.10 337.43 C 155.95 335.46 154.10 333.08 151.31 331.98 C 150.91 331.90 150.11 331.73 149.70 331.65 C 147.49 330.77 145.08 330.90 142.75 330.71 C 140.55 329.73 138.10 329.92 135.76 329.71 C 133.55 328.73 131.09 328.92 128.74 328.71 C 126.54 327.73 124.10 327.90 121.76 327.71 C 119.55 326.73 117.10 326.90 114.75 326.71 C 112.56 325.72 110.10 325.92 107.76 325.71 C 105.55 324.74 103.10 324.93 100.76 324.71 C 98.12 323.62 95.19 324.09 92.47 323.30 C 90.66 322.77 89.23 324.45 87.85 325.34 Z" />
<path fill="#6b7280" opacity="1.00" d=" M 302.00 36.89 C 303.91 37.01 305.90 36.91 307.68 37.74 C 308.10 37.85 308.94 38.08 309.36 38.20 C 310.35 38.60 311.36 38.97 312.38 39.30 C 313.37 39.67 314.38 39.99 315.40 40.27 C 316.38 40.66 317.38 41.00 318.40 41.28 C 319.38 41.66 320.37 41.98 321.39 42.24 C 322.74 42.88 324.25 43.11 325.61 43.76 C 326.62 44.03 327.62 44.35 328.60 44.72 C 329.62 45.00 330.62 45.33 331.61 45.71 C 332.63 46.03 333.64 46.40 334.64 46.81 C 335.07 46.92 335.92 47.13 336.34 47.24 C 338.07 47.82 339.87 48.15 341.61 48.69 C 342.63 49.03 343.64 49.40 344.64 49.81 C 345.06 49.92 345.91 50.15 346.33 50.27 C 348.37 50.90 350.52 51.12 352.60 51.64 C 353.61 51.97 354.61 52.33 355.60 52.74 C 356.61 53.01 357.61 53.34 358.60 53.72 C 359.61 54.00 360.61 54.34 361.60 54.73 C 362.62 55.01 363.62 55.34 364.60 55.73 C 365.62 56.01 366.63 56.33 367.62 56.70 C 368.64 57.03 369.64 57.41 370.64 57.82 C 371.07 57.91 371.93 58.10 372.36 58.19 C 373.34 58.59 374.35 58.94 375.37 59.25 C 376.78 59.84 378.27 60.18 379.65 60.86 C 380.07 60.93 380.93 61.09 381.36 61.16 C 382.35 61.59 383.35 61.98 384.38 62.32 C 386.09 62.88 387.89 63.12 389.60 63.69 C 390.62 63.99 391.62 64.33 392.62 64.71 C 393.64 65.04 394.64 65.40 395.64 65.80 C 396.06 65.92 396.90 66.16 397.32 66.28 C 399.41 66.87 401.58 67.12 403.67 67.73 C 404.10 67.85 404.94 68.08 405.36 68.20 C 406.35 68.60 407.36 68.97 408.39 69.30 C 409.37 69.66 410.37 69.97 411.39 70.24 C 412.74 70.89 414.25 71.11 415.61 71.76 C 416.62 72.02 417.61 72.34 418.60 72.72 C 419.61 73.00 420.61 73.34 421.60 73.73 C 422.62 74.01 423.62 74.33 424.62 74.71 C 425.64 75.03 426.64 75.40 427.64 75.81 C 428.07 75.91 428.92 76.12 429.35 76.22 C 431.10 76.80 432.90 77.20 434.65 77.79 C 435.08 77.88 435.94 78.04 436.37 78.13 C 437.03 78.43 438.35 79.04 439.01 79.35 C 439.00 193.46 438.98 307.58 439.02 421.69 C 438.37 421.96 437.05 422.50 436.40 422.77 C 435.38 423.03 434.38 423.34 433.40 423.71 C 432.38 424.00 431.38 424.34 430.40 424.73 C 429.37 425.00 428.37 425.32 427.38 425.71 C 426.35 426.03 425.34 426.40 424.36 426.82 C 423.93 426.91 423.07 427.10 422.65 427.19 C 421.65 427.58 420.64 427.94 419.63 428.27 C 418.24 428.87 416.75 429.13 415.37 429.73 C 414.35 430.05 413.34 430.41 412.36 430.80 C 411.94 430.91 411.09 431.13 410.67 431.24 C 409.35 431.67 408.01 432.01 406.68 432.34 C 404.57 432.87 402.40 433.10 400.32 433.74 C 399.90 433.84 399.06 434.05 398.65 434.16 C 397.28 434.84 395.77 435.13 394.38 435.75 C 393.39 436.05 392.41 436.38 391.44 436.75 C 390.19 437.20 388.30 437.09 387.80 438.63 C 388.29 389.09 387.82 339.52 388.04 289.98 C 388.00 288.05 388.15 286.03 387.19 284.28 C 387.08 283.37 386.98 282.47 386.90 281.57 C 386.09 280.53 385.33 279.48 384.59 278.41 C 383.51 277.67 382.46 276.89 381.43 276.10 C 380.52 276.01 379.62 275.92 378.72 275.83 C 377.36 274.81 375.63 274.82 374.28 275.83 C 373.37 275.92 372.47 276.01 371.57 276.10 C 370.51 276.86 369.51 277.71 368.41 278.40 C 367.65 279.47 366.91 280.54 366.10 281.57 C 366.00 282.47 365.90 283.37 365.81 284.28 C 364.46 287.00 365.12 290.13 364.99 293.04 C 365.00 343.31 365.03 393.59 364.97 443.86 C 365.19 445.90 362.97 445.92 361.59 446.17 C 360.19 446.78 358.75 447.26 357.36 447.84 C 356.94 447.94 356.10 448.16 355.68 448.26 C 353.59 448.87 351.42 449.13 349.33 449.72 C 348.91 449.85 348.07 450.12 347.65 450.25 C 345.92 450.81 344.13 451.15 342.41 451.70 C 341.38 451.99 340.37 452.33 339.38 452.71 C 338.35 453.03 337.35 453.40 336.36 453.82 C 335.93 453.91 335.07 454.09 334.64 454.18 C 333.64 454.59 332.64 454.96 331.62 455.31 C 330.63 455.65 329.62 455.96 328.61 456.22 C 327.22 456.85 325.71 457.17 324.35 457.86 C 323.92 457.94 323.07 458.09 322.64 458.17 C 321.65 458.58 320.64 458.96 319.62 459.30 C 318.62 459.67 317.62 459.99 316.60 460.27 C 315.62 460.65 314.62 460.99 313.60 461.28 C 312.62 461.66 311.61 461.98 310.60 462.25 C 309.61 462.65 308.61 463.03 307.61 463.37 C 305.81 464.01 303.88 464.02 302.00 464.11 C 302.00 321.70 302.00 179.30 302.00 36.89 M 374.28 125.83 C 373.37 125.92 372.47 126.01 371.57 126.10 C 370.52 126.88 369.50 127.69 368.41 128.41 C 367.67 129.48 366.90 130.53 366.10 131.57 C 366.01 132.47 365.91 133.38 365.81 134.28 C 365.23 135.45 364.96 136.68 364.99 137.98 C 364.99 159.32 365.04 180.66 364.97 202.00 C 364.96 203.60 365.01 205.27 365.81 206.72 C 365.91 207.62 366.01 208.52 366.10 209.43 C 366.88 210.47 367.68 211.50 368.41 212.59 C 369.49 213.31 370.52 214.11 371.57 214.90 C 372.47 214.98 373.37 215.07 374.28 215.17 C 375.63 216.18 377.36 216.18 378.71 215.17 C 379.62 215.08 380.52 214.99 381.44 214.90 C 382.43 214.06 383.53 213.35 384.59 212.58 C 385.32 211.50 386.11 210.47 386.90 209.43 C 386.98 208.52 387.08 207.62 387.19 206.72 C 387.75 205.56 388.03 204.34 388.01 203.06 C 388.01 181.70 387.96 160.34 388.03 138.97 C 388.03 137.37 387.99 135.72 387.19 134.28 C 387.08 133.38 386.99 132.47 386.90 131.57 C 386.08 130.54 385.34 129.47 384.58 128.42 C 383.54 127.63 382.42 126.95 381.44 126.10 C 380.53 126.00 379.62 125.91 378.71 125.83 C 377.36 124.82 375.63 124.81 374.28 125.83 Z" />
<path fill="#6b7280" opacity="1.00" d=" M 2186.57 76.81 C 2196.89 75.25 2207.93 76.68 2217.01 82.04 C 2224.62 86.51 2230.39 94.16 2232.11 102.87 C 2234.10 112.99 2231.75 124.08 2225.17 132.11 C 2220.11 138.40 2212.74 142.57 2204.93 144.34 C 2190.61 147.59 2173.88 144.38 2163.89 133.00 C 2153.03 120.99 2152.98 100.95 2163.77 88.88 C 2169.54 82.19 2177.92 78.16 2186.57 76.81 Z" />
<path fill="#6b7280" opacity="1.00" d=" M 1740.02 105.65 C 1762.86 104.04 1786.47 106.25 1807.63 115.47 C 1824.13 122.61 1838.84 134.80 1847.06 150.98 C 1855.52 167.19 1856.80 186.24 1853.94 204.05 C 1851.45 219.39 1844.18 233.56 1834.82 245.82 C 1823.62 260.80 1809.46 273.12 1795.98 285.96 C 1780.15 300.94 1764.27 315.87 1748.47 330.88 C 1787.06 330.83 1825.67 330.97 1864.26 330.81 C 1864.17 347.89 1864.35 364.97 1864.19 382.05 C 1864.52 384.12 1862.35 383.69 1861.08 383.76 C 1802.71 383.74 1744.35 383.76 1685.98 383.75 C 1676.40 383.64 1666.81 383.97 1657.24 383.61 C 1656.49 382.20 1656.79 380.53 1656.72 379.01 C 1656.78 366.62 1656.74 354.24 1656.74 341.85 C 1686.73 313.48 1716.76 285.15 1746.77 256.79 C 1757.97 245.98 1770.05 235.86 1779.28 223.21 C 1784.70 215.82 1789.03 207.31 1789.92 198.07 C 1790.85 189.20 1789.51 179.50 1783.61 172.47 C 1777.70 165.30 1768.47 161.99 1759.54 160.65 C 1741.66 158.09 1722.40 160.94 1707.34 171.36 C 1701.01 175.64 1695.68 181.24 1691.18 187.38 C 1675.63 177.07 1659.84 167.11 1644.17 156.98 C 1651.86 144.45 1663.09 134.33 1675.31 126.30 C 1694.57 113.85 1717.26 107.35 1740.02 105.65 Z" />
<path fill="#6b7280" opacity="1.00" d=" M 627.12 110.34 C 668.74 109.98 710.39 110.28 752.03 110.20 C 788.50 110.30 826.13 119.96 854.87 143.22 C 878.87 162.30 894.80 190.72 899.64 220.91 C 903.80 246.34 902.13 273.00 893.23 297.29 C 883.93 322.96 865.70 345.14 842.57 359.59 C 824.52 371.02 803.89 378.01 782.86 381.35 C 763.72 384.61 744.26 383.69 724.94 383.81 C 695.29 383.82 665.64 383.81 635.98 383.82 C 632.80 383.77 629.58 384.05 626.43 383.55 C 625.84 370.05 626.36 356.49 626.19 342.97 C 626.19 280.63 626.19 218.29 626.19 155.95 C 626.34 140.79 625.87 125.60 626.41 110.46 L 627.12 110.34 M 690.82 163.57 C 690.81 219.19 690.81 274.81 690.82 330.43 C 706.21 330.44 721.61 330.44 737.00 330.44 C 744.70 330.42 752.42 330.60 760.10 329.80 C 774.34 328.40 788.51 324.35 800.72 316.76 C 812.80 309.34 822.61 298.30 828.51 285.41 C 835.87 269.42 837.68 251.28 835.60 233.92 C 833.63 217.55 827.04 201.48 815.63 189.42 C 803.96 176.88 787.85 169.14 771.19 165.85 C 761.94 163.95 752.47 163.46 743.05 163.56 C 725.64 163.57 708.23 163.56 690.82 163.57 Z" />
<path fill="#6b7280" opacity="1.00" d=" M 1045.34 170.45 C 1075.40 168.64 1106.78 176.32 1130.54 195.37 C 1148.71 209.71 1161.56 230.48 1166.53 253.06 C 1171.55 275.85 1169.88 300.31 1160.77 321.88 C 1153.50 339.12 1141.30 354.21 1126.04 365.03 C 1107.70 378.16 1085.40 385.12 1063.00 386.49 C 1032.29 388.54 1000.14 380.70 975.98 361.06 C 962.01 349.84 951.10 334.85 944.76 318.08 C 937.31 298.43 935.87 276.67 939.85 256.08 C 943.83 235.41 954.30 216.03 969.59 201.53 C 989.82 182.16 1017.60 171.90 1045.34 170.45 M 1042.56 222.65 C 1030.13 224.96 1018.57 232.03 1011.31 242.44 C 1002.05 255.50 999.54 272.30 1001.41 287.94 C 1003.02 301.62 1009.19 315.13 1020.02 323.93 C 1033.15 334.78 1051.64 337.72 1067.94 333.64 C 1079.74 330.73 1090.36 323.26 1096.89 312.99 C 1105.39 299.76 1107.46 283.29 1105.45 267.93 C 1103.63 253.93 1096.93 240.18 1085.42 231.66 C 1073.34 222.54 1057.24 219.87 1042.56 222.65 Z" />
<path fill="#6b7280" opacity="1.00" d=" M 1313.31 170.42 C 1334.13 169.33 1355.53 172.32 1374.40 181.51 C 1392.85 190.32 1408.04 205.78 1416.10 224.62 C 1399.94 233.27 1383.77 241.87 1367.64 250.58 C 1362.95 242.53 1356.98 235.03 1349.13 229.87 C 1332.57 218.83 1309.83 219.16 1292.70 228.76 C 1279.12 236.35 1270.29 250.78 1267.90 265.96 C 1264.90 283.87 1267.97 303.84 1280.15 317.91 C 1294.31 334.42 1319.08 339.34 1339.23 332.29 C 1351.73 327.91 1361.33 317.82 1367.62 306.43 C 1383.80 315.15 1399.84 324.13 1416.12 332.65 C 1409.46 347.92 1398.08 361.02 1384.04 369.96 C 1367.24 380.78 1347.24 385.86 1327.40 386.67 C 1306.80 387.47 1285.86 384.28 1266.92 375.94 C 1249.61 368.37 1234.10 356.39 1223.09 340.96 C 1199.93 308.78 1197.52 263.51 1215.49 228.42 C 1223.47 212.95 1235.58 199.71 1250.12 190.19 C 1268.79 177.83 1291.05 171.53 1313.31 170.42 Z" />
<path fill="#6b7280" opacity="1.00" d=" M 1532.84 170.36 C 1553.94 169.46 1575.20 171.83 1595.54 177.54 C 1605.13 180.27 1614.49 183.91 1623.12 188.94 C 1615.94 203.62 1609.55 218.73 1602.03 233.22 C 1595.48 230.39 1589.26 226.75 1582.42 224.57 C 1567.62 219.32 1551.78 217.19 1536.12 217.90 C 1528.71 218.30 1521.15 219.28 1514.35 222.41 C 1510.43 224.23 1506.68 227.02 1504.93 231.08 C 1502.79 235.77 1503.77 241.81 1507.80 245.19 C 1513.19 249.83 1520.38 251.43 1527.12 253.06 C 1550.04 257.82 1573.98 259.01 1595.74 268.32 C 1608.81 273.80 1620.72 283.59 1625.87 297.12 C 1632.57 314.95 1630.99 336.28 1619.86 352.02 C 1609.89 366.34 1593.98 375.33 1577.59 380.40 C 1554.55 387.39 1529.98 388.08 1506.18 385.37 C 1482.75 382.36 1459.04 376.52 1438.87 363.78 C 1445.89 348.86 1452.70 333.84 1459.88 319.00 C 1475.65 328.78 1493.61 334.67 1511.89 337.57 C 1523.96 339.42 1536.32 339.87 1548.45 338.21 C 1554.28 337.29 1560.33 335.88 1565.07 332.14 C 1569.41 328.76 1571.31 322.53 1569.46 317.33 C 1567.80 313.21 1563.67 310.83 1559.75 309.24 C 1550.54 305.69 1540.66 304.56 1530.98 303.01 C 1513.56 300.39 1495.82 298.08 1479.44 291.27 C 1468.64 286.77 1458.50 279.76 1452.23 269.70 C 1444.34 257.08 1442.77 241.31 1445.29 226.87 C 1448.17 210.82 1458.53 196.78 1472.01 187.89 C 1489.89 175.94 1511.64 171.39 1532.84 170.36 Z" />
<path fill="#6b7280" opacity="1.00" d=" M 1959.81 173.87 C 1980.85 169.72 2002.62 168.94 2023.84 172.14 C 2041.94 174.96 2060.04 181.66 2073.55 194.39 C 2086.10 206.01 2093.59 222.22 2096.63 238.87 C 2099.45 253.06 2098.72 267.59 2098.81 281.97 C 2098.82 312.64 2098.81 343.31 2098.82 373.97 C 2098.76 377.16 2099.02 380.38 2098.57 383.55 C 2079.31 384.22 2059.98 383.54 2040.70 383.88 C 2039.82 375.93 2040.53 367.90 2040.32 359.92 C 2030.22 374.94 2012.66 383.10 1995.14 385.50 C 1974.17 388.34 1951.93 386.75 1932.72 377.30 C 1917.84 370.05 1905.58 356.94 1900.86 340.92 C 1895.82 323.52 1897.66 303.44 1908.26 288.41 C 1917.56 275.23 1932.76 267.63 1948.07 263.75 C 1970.23 257.91 1993.32 259.38 2016.00 259.19 C 2022.82 259.19 2029.64 259.19 2036.46 259.18 C 2036.24 250.00 2033.97 240.40 2027.68 233.41 C 2020.68 225.48 2010.07 221.94 1999.84 220.73 C 1979.37 218.46 1958.22 222.52 1940.00 232.10 C 1935.81 234.21 1932.18 237.22 1928.08 239.46 C 1920.77 224.90 1913.15 210.50 1905.72 196.00 C 1921.78 184.63 1940.63 177.76 1959.81 173.87 M 1966.43 303.38 C 1955.93 311.58 1956.87 329.74 1967.59 337.39 C 1977.82 344.82 1991.44 345.35 2003.51 343.36 C 2017.98 340.95 2031.51 331.04 2036.24 316.86 C 2036.76 310.04 2036.23 303.18 2036.48 296.34 C 2021.97 296.31 2007.47 296.26 1992.96 296.37 C 1983.82 296.72 1974.00 297.75 1966.43 303.38 Z" />
<path fill="#6b7280" opacity="1.00" d=" M 2163.45 173.43 C 2184.02 172.80 2204.66 173.46 2225.26 173.10 C 2225.97 189.05 2225.36 205.05 2225.56 221.01 C 2225.56 272.02 2225.56 323.03 2225.57 374.03 C 2225.53 377.32 2225.72 380.63 2225.24 383.90 C 2205.14 383.64 2185.03 383.98 2164.93 383.74 C 2162.95 384.20 2163.20 382.29 2163.19 380.98 C 2163.18 324.99 2163.19 269.00 2163.19 213.00 C 2163.37 199.82 2162.81 186.59 2163.45 173.43 Z" />
</g>
</svg>
