<svg xmlns="http://www.w3.org/2000/svg" version="1.1" xmlns:xlink="http://www.w3.org/1999/xlink" xmlns:svgjs="http://svgjs.dev/svgjs" width="1000" height="1000" viewBox="0 0 1000 1000"><rect width="1000" height="1000" fill="#ffffff"></rect><g transform="matrix(0.7,0,0,0.7,149.57575772363458,438.96294324883115)"><svg viewBox="0 0 396 69" data-background-color="#ffffff" preserveAspectRatio="xMidYMid meet" height="174" width="1000" xmlns="http://www.w3.org/2000/svg" xmlns:xlink="http://www.w3.org/1999/xlink"><g id="tight-bounds" transform="matrix(1,0,0,1,0.24000008365612757,0.07764302767589015)"><svg viewBox="0 0 395.52 68.84471398520877" height="68.84471398520877" width="395.52"><g><svg viewBox="0 0 477.13162396564246 83.05013699740302" height="68.84471398520877" width="395.52"><g><svg viewBox="0 0 477.13162396564246 83.05013699740302" height="83.05013699740302" width="477.13162396564246"><g id="textblocktransform"><svg viewBox="0 0 477.13162396564246 83.05013699740302" height="83.05013699740302" width="477.13162396564246" id="textblock"><g><svg viewBox="0 0 477.13162396564246 58.89520000000001" height="58.89520000000001" width="477.13162396564246"><g><svg><g></g><g></g></svg></g><g><svg><g></g><g><svg></svg></g></svg></g><g id="text-0"><svg viewBox="0 0 477.13162396564246 58.89520000000001" height="58.89520000000001" width="477.13162396564246"><g><svg xmlns="http://www.w3.org/2000/svg" xmlns:xlink="http://www.w3.org/1999/xlink" version="1.1" x="0" y="0" viewBox="7.7860002517700195 13.361000061035156 84.45763397216797 73.46599578857422" enable-background="new 0 0 100 100" xml:space="preserve" height="58.89520000000001" width="67.7068239656425" class="icon-s-0" data-fill-palette-color="accent" id="s-0"><path d="M91.609 85.407c-4.207-5.085-3.187-12-2.187-15.735 0.942-2.331 1.472-4.812 1.472-7.406 0-4.633-1.631-8.939-4.414-12.549C83.77 66.564 67.068 79.609 46.761 79.93c4.665 3.282 10.648 5.26 17.174 5.26 4.771 0 9.237-1.063 13.119-2.91 5.959 3.998 13.379 4.547 13.379 4.547C93.641 86.825 91.609 85.407 91.609 85.407z" fill="#77d4fc" data-fill-palette-color="accent"></path><path d="M83.426 44.923c0-17.401-16.789-31.562-37.421-31.562-20.635 0-37.422 14.161-37.422 31.562 0 3.4 0.673 6.804 2.003 10.106 1.544 5.688 3.072 15.9-2.8 23.798 1.994-0.214 10.954-1.419 18.195-6.271l0.823-0.55 0.894 0.423c5.578 2.651 11.908 4.057 18.307 4.057C66.637 76.486 83.426 62.324 83.426 44.923z" fill="#77d4fc" data-fill-palette-color="accent"></path></svg></g><g transform="matrix(1,0,0,1,81.61162396564251,15.306623671545038)"><svg width="395.52" viewBox="0.2800000011920929 -35.70000076293945 509 36.400001525878906" height="28.281952656909933" data-palette-color="#010c80"><path d="M22.93-13.83L22.93-8.95 8.08-8.95 8.08-13.83 22.93-13.83ZM25.23 0L14.75-29.68 16.25-29.68 5.78 0 0.28 0 12.78-35 18.23-35 30.73 0 25.23 0ZM40.37 0L34.92 0 34.92-35 40.37-35 40.37 0ZM58.32 0.7L58.32 0.7Q56.17 0.7 53.96 0.34 51.75-0.03 49.87-0.58 47.99-1.13 46.8-1.68L46.8-1.68 47.49-7.48Q49.02-6.73 50.93-6.03 52.84-5.33 54.97-4.85 57.09-4.38 59.27-4.38L59.27-4.38Q62.3-4.38 64.09-5.51 65.9-6.65 65.9-9.05L65.9-9.05Q65.9-10.85 64.94-11.99 64-13.13 62.08-13.96 60.17-14.8 57.22-15.73L57.22-15.73Q54.4-16.63 52.06-17.82 49.72-19.03 48.32-20.96 46.92-22.9 46.92-26.03L46.92-26.03Q46.92-28.85 48.36-31.04 49.8-33.23 52.59-34.46 55.4-35.7 59.52-35.7L59.52-35.7Q62.87-35.7 65.76-34.96 68.65-34.23 70.59-33.38L70.59-33.38 70.05-27.68Q67.15-29.23 64.56-29.93 61.97-30.63 59.25-30.63L59.25-30.63Q56.3-30.63 54.48-29.58 52.67-28.53 52.67-26.25L52.67-26.25Q52.67-24.6 53.55-23.59 54.42-22.58 56.12-21.85 57.82-21.13 60.27-20.35L60.27-20.35Q64-19.23 66.59-17.8 69.19-16.38 70.56-14.33 71.92-12.28 71.92-9.25L71.92-9.25Q71.92-7.3 71.23-5.53 70.55-3.75 68.97-2.34 67.4-0.93 64.78-0.11 62.17 0.7 58.32 0.7ZM91.47 0.7L91.47 0.7Q86.54 0.7 83.33-1.21 80.12-3.13 78.54-6.63 76.97-10.13 76.97-14.93L76.97-14.93 76.97-35 82.42-35 82.42-16.35Q82.42-13.93 82.78-11.75 83.14-9.58 84.09-7.93 85.04-6.28 86.83-5.33 88.62-4.38 91.47-4.38L91.47-4.38Q94.34-4.38 96.13-5.33 97.92-6.28 98.87-7.94 99.82-9.6 100.17-11.76 100.52-13.93 100.52-16.35L100.52-16.35 100.52-35 105.97-35 105.97-14.93Q105.97-10.13 104.39-6.63 102.82-3.13 99.6-1.21 96.39 0.7 91.47 0.7ZM119.04 0L113.44 0 113.44-35 125.39-35Q129.12-35 131.84-33.84 134.56-32.68 136.03-30.18 137.49-27.68 137.49-23.68L137.49-23.68Q137.49-19.68 136.03-17.14 134.56-14.6 131.85-13.4 129.14-12.2 125.44-12.2L125.44-12.2 119.04-12.2 119.04 0ZM119.04-30.28L119.04-16.93 124.72-16.93Q128.31-16.93 130.12-18.55 131.91-20.18 131.91-23.6L131.91-23.6Q131.91-27.05 130.16-28.66 128.41-30.28 124.67-30.28L124.67-30.28 119.04-30.28ZM148.14 0L142.54 0 142.54-35 154.49-35Q158.21-35 160.94-33.84 163.66-32.68 165.13-30.18 166.59-27.68 166.59-23.68L166.59-23.68Q166.59-19.68 165.13-17.14 163.66-14.6 160.95-13.4 158.24-12.2 154.54-12.2L154.54-12.2 148.14-12.2 148.14 0ZM148.14-30.28L148.14-16.93 153.81-16.93Q157.41-16.93 159.21-18.55 161.01-20.18 161.01-23.6L161.01-23.6Q161.01-27.05 159.26-28.66 157.51-30.28 153.76-30.28L153.76-30.28 148.14-30.28ZM186.86 0.7L186.86 0.7Q181.86 0.7 177.96-1.55 174.06-3.8 171.84-7.89 169.61-11.98 169.61-17.5L169.61-17.5Q169.61-23.03 171.84-27.11 174.06-31.2 177.96-33.45 181.86-35.7 186.86-35.7L186.86-35.7Q191.86-35.7 195.76-33.45 199.66-31.2 201.89-27.11 204.11-23.03 204.11-17.5L204.11-17.5Q204.11-11.98 201.89-7.89 199.66-3.8 195.76-1.55 191.86 0.7 186.86 0.7ZM186.86-4.58L186.86-4.58Q190.66-4.58 193.21-6.28 195.76-7.98 197.05-10.91 198.34-13.85 198.34-17.5L198.34-17.5Q198.34-21.15 197.05-24.09 195.76-27.03 193.21-28.73 190.66-30.43 186.86-30.43L186.86-30.43Q183.06-30.43 180.51-28.73 177.96-27.03 176.67-24.09 175.39-21.15 175.39-17.5L175.39-17.5Q175.39-13.85 176.67-10.91 177.96-7.98 180.51-6.28 183.06-4.58 186.86-4.58ZM215.53 0L209.93 0 209.93-35 221.91-35Q225.56-35 228.27-33.86 230.98-32.73 232.48-30.38 233.98-28.03 233.98-24.38L233.98-24.38Q233.98-20.68 232.4-18.31 230.81-15.95 227.96-14.58L227.96-14.58 235.83 0 229.46 0 222.51-13.38Q222.43-13.38 222.38-13.38 222.33-13.38 222.26-13.38L222.26-13.38 215.53-13.38 215.53 0ZM215.53-30.28L215.53-18.1 221.16-18.1Q224.88-18.1 226.6-19.78 228.31-21.45 228.31-24.23L228.31-24.23Q228.31-27.1 226.61-28.69 224.91-30.28 221.26-30.28L221.26-30.28 215.53-30.28ZM252.41 0L246.96 0 246.96-29.9 236.88-29.9 236.88-35 262.48-35 262.48-29.9 252.41-29.9 252.41 0ZM283.48-13.83L283.48-8.95 268.63-8.95 268.63-13.83 283.48-13.83ZM285.78 0L275.3-29.68 276.8-29.68 266.33 0 260.83 0 273.33-35 278.78-35 291.28 0 285.78 0ZM305.55 0.7L305.55 0.7Q303.4 0.7 301.19 0.34 298.98-0.03 297.1-0.58 295.23-1.13 294.03-1.68L294.03-1.68 294.73-7.48Q296.25-6.73 298.16-6.03 300.07-5.33 302.2-4.85 304.32-4.38 306.5-4.38L306.5-4.38Q309.53-4.38 311.32-5.51 313.13-6.65 313.13-9.05L313.13-9.05Q313.13-10.85 312.18-11.99 311.23-13.13 309.31-13.96 307.4-14.8 304.45-15.73L304.45-15.73Q301.63-16.63 299.29-17.82 296.95-19.03 295.55-20.96 294.15-22.9 294.15-26.03L294.15-26.03Q294.15-28.85 295.59-31.04 297.03-33.23 299.82-34.46 302.63-35.7 306.75-35.7L306.75-35.7Q310.1-35.7 312.99-34.96 315.88-34.23 317.82-33.38L317.82-33.38 317.28-27.68Q314.38-29.23 311.79-29.93 309.2-30.63 306.48-30.63L306.48-30.63Q303.53-30.63 301.71-29.58 299.9-28.53 299.9-26.25L299.9-26.25Q299.9-24.6 300.78-23.59 301.65-22.58 303.35-21.85 305.05-21.13 307.5-20.35L307.5-20.35Q311.23-19.23 313.82-17.8 316.43-16.38 317.79-14.33 319.15-12.28 319.15-9.25L319.15-9.25Q319.15-7.3 318.46-5.53 317.78-3.75 316.2-2.34 314.63-0.93 312.01-0.11 309.4 0.7 305.55 0.7ZM330.05 0L324.6 0 324.6-35 330.05-35 330.05 0ZM348 0.7L348 0.7Q345.85 0.7 343.63 0.34 341.42-0.03 339.55-0.58 337.67-1.13 336.47-1.68L336.47-1.68 337.17-7.48Q338.69-6.73 340.61-6.03 342.52-5.33 344.64-4.85 346.77-4.38 348.94-4.38L348.94-4.38Q351.97-4.38 353.77-5.51 355.57-6.65 355.57-9.05L355.57-9.05Q355.57-10.85 354.62-11.99 353.67-13.13 351.76-13.96 349.85-14.8 346.89-15.73L346.89-15.73Q344.07-16.63 341.73-17.82 339.39-19.03 338-20.96 336.6-22.9 336.6-26.03L336.6-26.03Q336.6-28.85 338.03-31.04 339.47-33.23 342.27-34.46 345.07-35.7 349.19-35.7L349.19-35.7Q352.55-35.7 355.43-34.96 358.32-34.23 360.27-33.38L360.27-33.38 359.72-27.68Q356.82-29.23 354.23-29.93 351.64-30.63 348.92-30.63L348.92-30.63Q345.97-30.63 344.16-29.58 342.35-28.53 342.35-26.25L342.35-26.25Q342.35-24.6 343.22-23.59 344.1-22.58 345.8-21.85 347.5-21.13 349.94-20.35L349.94-20.35Q353.67-19.23 356.27-17.8 358.87-16.38 360.23-14.33 361.6-12.28 361.6-9.25L361.6-9.25Q361.6-7.3 360.91-5.53 360.22-3.75 358.64-2.34 357.07-0.93 354.46-0.11 351.85 0.7 348 0.7ZM377.12 0.7L377.12 0.7Q374.97 0.7 372.75 0.34 370.54-0.03 368.67-0.58 366.79-1.13 365.59-1.68L365.59-1.68 366.29-7.48Q367.82-6.73 369.73-6.03 371.64-5.33 373.77-4.85 375.89-4.38 378.07-4.38L378.07-4.38Q381.09-4.38 382.89-5.51 384.69-6.65 384.69-9.05L384.69-9.05Q384.69-10.85 383.74-11.99 382.79-13.13 380.88-13.96 378.97-14.8 376.02-15.73L376.02-15.73Q373.19-16.63 370.86-17.82 368.52-19.03 367.12-20.96 365.72-22.9 365.72-26.03L365.72-26.03Q365.72-28.85 367.16-31.04 368.59-33.23 371.39-34.46 374.19-35.7 378.32-35.7L378.32-35.7Q381.67-35.7 384.56-34.96 387.44-34.23 389.39-33.38L389.39-33.38 388.84-27.68Q385.94-29.23 383.36-29.93 380.77-30.63 378.04-30.63L378.04-30.63Q375.09-30.63 373.28-29.58 371.47-28.53 371.47-26.25L371.47-26.25Q371.47-24.6 372.34-23.59 373.22-22.58 374.92-21.85 376.62-21.13 379.07-20.35L379.07-20.35Q382.79-19.23 385.39-17.8 387.99-16.38 389.36-14.33 390.72-12.28 390.72-9.25L390.72-9.25Q390.72-7.3 390.03-5.53 389.34-3.75 387.77-2.34 386.19-0.93 383.58-0.11 380.97 0.7 377.12 0.7ZM408.51 0L403.06 0 403.06-29.9 392.99-29.9 392.99-35 418.59-35 418.59-29.9 408.51-29.9 408.51 0ZM439.59-13.83L439.59-8.95 424.74-8.95 424.74-13.83 439.59-13.83ZM441.89 0L431.41-29.68 432.91-29.68 422.44 0 416.94 0 429.44-35 434.89-35 447.39 0 441.89 0ZM457.04 0L451.59 0 451.59-35 457.24-35 473.51-10.33 473.51-35 478.99-35 478.99 0 474.44 0 457.04-26.1 457.04 0ZM499.21 0L493.76 0 493.76-29.9 483.68-29.9 483.68-35 509.28-35 509.28-29.9 499.21-29.9 499.21 0Z" opacity="1" transform="matrix(1,0,0,1,0,0)" fill="#010c80" class="wordmark-text-0" data-fill-palette-color="primary"></path></svg></g></svg></g></svg></g><g transform="matrix(1,0,0,1,166.89286266939425,65.57189025543268)"><svg viewBox="0 0 143.34589862685397 17.478246741970338" height="17.478246741970338" width="143.34589862685397"><g transform="matrix(1,0,0,1,0,0)"><svg width="143.34589862685397" viewBox="2.700000047683716 -40.900001525878906 413.28997802734375 50.400001525878906" height="17.478246741970338" data-palette-color="#77d4fc"><path d="M12.95 0.5L12.95 0.5Q8.85 0.5 6.63-1.2 4.4-2.9 3.55-5.78 2.7-8.65 2.7-12.15L2.7-12.15 2.7-28.25Q2.7-32 3.58-34.85 4.45-37.7 6.7-39.3 8.95-40.9 12.95-40.9L12.95-40.9Q16.6-40.9 18.68-39.5 20.75-38.1 21.65-35.52 22.55-32.95 22.55-29.4L22.55-29.4 22.55-26.95 18.95-26.95 18.95-29.3Q18.95-31.95 18.53-33.85 18.1-35.75 16.8-36.8 15.5-37.85 13-37.85L13-37.85Q10.25-37.85 8.88-36.73 7.5-35.6 7.03-33.55 6.55-31.5 6.55-28.8L6.55-28.8 6.55-11.55Q6.55-8.55 7.13-6.55 7.7-4.55 9.1-3.55 10.5-2.55 13-2.55L13-2.55Q15.55-2.55 16.82-3.65 18.1-4.75 18.53-6.73 18.95-8.7 18.95-11.35L18.95-11.35 18.95-14 22.55-14 22.55-11.6Q22.55-8.05 21.73-5.33 20.9-2.6 18.82-1.05 16.75 0.5 12.95 0.5ZM31.45 0L27.8 0 27.8-40.5 31.45-40.5 31.45-25.85Q32.9-27.4 34.65-28.38 36.4-29.35 38.5-29.35L38.5-29.35Q39.95-29.35 40.92-28.63 41.9-27.9 42.42-26.53 42.95-25.15 42.95-23.2L42.95-23.2 42.95 0 39.25 0 39.25-22.4Q39.25-24.65 38.57-25.58 37.9-26.5 36.5-26.5L36.5-26.5Q35.25-26.5 33.92-25.73 32.6-24.95 31.45-23.75L31.45-23.75 31.45 0ZM53.34 0.45L53.34 0.45Q51.59 0.45 50.3-0.43 49-1.3 48.27-2.78 47.55-4.25 47.55-6L47.55-6Q47.55-8.2 48.17-9.75 48.8-11.3 50.17-12.53 51.55-13.75 53.77-14.93 56-16.1 59.2-17.55L59.2-17.55 59.2-19.6Q59.2-22.25 58.87-23.78 58.55-25.3 57.77-25.95 57-26.6 55.59-26.6L55.59-26.6Q54.45-26.6 53.55-26.15 52.65-25.7 52.09-24.63 51.55-23.55 51.55-21.65L51.55-21.65 51.55-20.65 47.95-20.7Q48-25.1 49.82-27.23 51.65-29.35 55.8-29.35L55.8-29.35Q59.7-29.35 61.27-27.03 62.84-24.7 62.84-19.8L62.84-19.8 62.84-5.75Q62.84-5 62.9-3.83 62.95-2.65 63-1.6 63.05-0.55 63.09 0L63.09 0 59.84 0Q59.75-0.95 59.55-2.13 59.34-3.3 59.3-4L59.3-4Q58.7-2.25 57.17-0.9 55.65 0.45 53.34 0.45ZM54.5-2.65L54.5-2.65Q55.59-2.65 56.5-3.2 57.4-3.75 58.09-4.53 58.8-5.3 59.2-6.1L59.2-6.1 59.2-15.1Q57.05-14 55.52-13.1 54-12.2 53.05-11.35 52.09-10.5 51.65-9.43 51.2-8.35 51.2-6.9L51.2-6.9Q51.2-4.6 52.2-3.63 53.2-2.65 54.5-2.65ZM74.84 0.35L74.84 0.35Q72.74 0.35 71.62-0.48 70.49-1.3 70.07-2.73 69.64-4.15 69.64-6L69.64-6 69.64-26.5 66.09-26.5 66.09-28.9 69.64-28.9 69.64-37.85 73.29-37.85 73.29-28.9 78.09-28.9 78.09-26.5 73.29-26.5 73.29-6.35Q73.29-4.25 73.77-3.38 74.24-2.5 75.84-2.5L75.84-2.5Q76.29-2.5 76.87-2.58 77.44-2.65 77.94-2.75L77.94-2.75 77.94 0.05Q77.19 0.2 76.39 0.28 75.59 0.35 74.84 0.35ZM89.34 9.5L89.34 9.5Q86.49 9.5 84.39 8.95 82.29 8.4 81.17 7.23 80.04 6.05 80.04 4.25L80.04 4.25Q80.04 2.8 80.74 1.6 81.44 0.4 82.54-0.53 83.64-1.45 84.79-2.05L84.79-2.05Q83.14-2.5 82.37-3.3 81.59-4.1 81.59-5.2L81.59-5.2Q81.59-6.7 82.52-7.9 83.44-9.1 85.04-10.45L85.04-10.45Q83.04-11.85 82.22-14.05 81.39-16.25 81.39-19.25L81.39-19.25Q81.39-22.05 82.27-24.33 83.14-26.6 84.92-27.98 86.69-29.35 89.49-29.35L89.49-29.35Q92.04-29.35 93.49-28.3 94.94-27.25 95.69-25.75L95.69-25.75Q96.14-26.45 97.24-27.48 98.34-28.5 99.59-29L99.59-29 100.34-29.25 101.34-26.7Q100.54-26.55 99.59-26.13 98.64-25.7 97.82-25.2 96.99-24.7 96.59-24.2L96.59-24.2Q96.94-23.3 97.22-21.75 97.49-20.2 97.49-19.15L97.49-19.15Q97.49-16.3 96.72-14 95.94-11.7 94.22-10.38 92.49-9.05 89.54-9.05L89.54-9.05Q88.79-9.05 87.97-9.2 87.14-9.35 86.59-9.5L86.59-9.5Q85.89-8.75 85.27-7.88 84.64-7 84.64-6.2L84.64-6.2Q84.64-5.5 85.22-5.13 85.79-4.75 87.04-4.6L87.04-4.6 91.64-3.9Q95.14-3.4 97.02-1.8 98.89-0.2 98.89 2.8L98.89 2.8Q98.89 5.05 97.67 6.55 96.44 8.05 94.32 8.78 92.19 9.5 89.34 9.5ZM89.49 6.55L89.49 6.55Q92.39 6.55 94.19 5.68 95.99 4.8 95.99 2.85L95.99 2.85Q95.99 1.85 95.57 1.1 95.14 0.35 93.97-0.18 92.79-0.7 90.54-1.05L90.54-1.05 86.84-1.55Q86.09-1.05 85.24-0.33 84.39 0.4 83.77 1.3 83.14 2.2 83.14 3.35L83.14 3.35Q83.14 5 84.72 5.78 86.29 6.55 89.49 6.55ZM89.54-11.7L89.54-11.7Q91.14-11.7 92.07-12.38 92.99-13.05 93.47-14.15 93.94-15.25 94.12-16.6 94.29-17.95 94.29-19.25L94.29-19.25Q94.29-20.55 94.09-21.85 93.89-23.15 93.39-24.28 92.89-25.4 91.97-26.08 91.04-26.75 89.54-26.75L89.54-26.75Q88.04-26.75 87.07-26.05 86.09-25.35 85.57-24.23 85.04-23.1 84.87-21.8 84.69-20.5 84.69-19.25L84.69-19.25Q84.69-18.05 84.84-16.7 84.99-15.35 85.52-14.23 86.04-13.1 87.02-12.4 87.99-11.7 89.54-11.7ZM107.19 9.5L103.54 9.5 103.54-28.9 107.19-28.9 107.19-26.5Q108.09-27.6 109.44-28.48 110.79-29.35 112.74-29.35L112.74-29.35Q114.84-29.35 116.11-28.38 117.39-27.4 118.09-25.75 118.79-24.1 119.04-22.05 119.29-20 119.29-17.85L119.29-17.85 119.29-11.75Q119.29-8.05 118.69-5.33 118.09-2.6 116.56-1.07 115.04 0.45 112.34 0.45L112.34 0.45Q110.59 0.45 109.31-0.45 108.04-1.35 107.19-2.3L107.19-2.3 107.19 9.5ZM111.79-2.45L111.79-2.45Q113.44-2.45 114.26-3.5 115.09-4.55 115.36-6.63 115.64-8.7 115.64-11.65L115.64-11.65 115.64-17.85Q115.64-20.65 115.36-22.58 115.09-24.5 114.24-25.5 113.39-26.5 111.69-26.5L111.69-26.5Q110.29-26.5 109.11-25.75 107.94-25 107.19-24.25L107.19-24.25 107.19-4.55Q107.99-3.7 109.16-3.08 110.34-2.45 111.79-2.45ZM131.24 0.35L131.24 0.35Q129.14 0.35 128.01-0.48 126.89-1.3 126.46-2.73 126.04-4.15 126.04-6L126.04-6 126.04-26.5 122.49-26.5 122.49-28.9 126.04-28.9 126.04-37.85 129.69-37.85 129.69-28.9 134.49-28.9 134.49-26.5 129.69-26.5 129.69-6.35Q129.69-4.25 130.16-3.38 130.64-2.5 132.24-2.5L132.24-2.5Q132.69-2.5 133.26-2.58 133.84-2.65 134.34-2.75L134.34-2.75 134.34 0.05Q133.59 0.2 132.78 0.28 131.99 0.35 131.24 0.35ZM155.18 0.45L155.18 0.45Q151.73 0.45 149.68-1.78 147.63-4 147.33-7.75L147.33-7.75 150.38-8.7Q150.68-5.35 151.93-3.83 153.18-2.3 155.43-2.3L155.43-2.3Q157.33-2.3 158.35-3.38 159.38-4.45 159.38-6.4L159.38-6.4Q159.38-7.8 158.53-9.22 157.68-10.65 155.88-12.2L155.88-12.2 151.93-15.6Q149.98-17.25 148.98-18.9 147.98-20.55 147.98-22.85L147.98-22.85Q147.98-24.95 148.85-26.38 149.73-27.8 151.28-28.58 152.83-29.35 154.88-29.35L154.88-29.35Q158.18-29.35 159.88-27.23 161.58-25.1 161.73-21.75L161.73-21.75 159.13-20.9Q159.03-22.85 158.53-24.13 158.03-25.4 157.16-26 156.28-26.6 155.03-26.6L155.03-26.6Q153.38-26.6 152.35-25.68 151.33-24.75 151.33-23.1L151.33-23.1Q151.33-21.8 151.83-20.8 152.33-19.8 153.68-18.55L153.68-18.55 157.78-14.9Q158.98-13.85 160.08-12.65 161.18-11.45 161.88-9.98 162.58-8.5 162.58-6.5L162.58-6.5Q162.58-4.25 161.66-2.73 160.73-1.2 159.08-0.38 157.43 0.45 155.18 0.45ZM170.98 0.45L170.98 0.45Q169.53 0.45 168.53-0.3 167.53-1.05 167-2.4 166.48-3.75 166.48-5.7L166.48-5.7 166.48-28.9 170.18-28.9 170.18-6.5Q170.18-4.25 170.85-3.35 171.53-2.45 172.93-2.45L172.93-2.45Q174.23-2.45 175.55-3.25 176.88-4.05 178.03-5.3L178.03-5.3 178.03-28.9 181.68-28.9 181.68 0 178.03 0 178.03-3.2Q176.63-1.6 174.83-0.58 173.03 0.45 170.98 0.45ZM190.97 9.5L187.33 9.5 187.33-28.9 190.97-28.9 190.97-26.5Q191.88-27.6 193.22-28.48 194.58-29.35 196.53-29.35L196.53-29.35Q198.63-29.35 199.9-28.38 201.18-27.4 201.88-25.75 202.58-24.1 202.83-22.05 203.08-20 203.08-17.85L203.08-17.85 203.08-11.75Q203.08-8.05 202.47-5.33 201.88-2.6 200.35-1.07 198.83 0.45 196.13 0.45L196.13 0.45Q194.38 0.45 193.1-0.45 191.83-1.35 190.97-2.3L190.97-2.3 190.97 9.5ZM195.58-2.45L195.58-2.45Q197.22-2.45 198.05-3.5 198.88-4.55 199.15-6.63 199.43-8.7 199.43-11.65L199.43-11.65 199.43-17.85Q199.43-20.65 199.15-22.58 198.88-24.5 198.03-25.5 197.18-26.5 195.47-26.5L195.47-26.5Q194.08-26.5 192.9-25.75 191.72-25 190.97-24.25L190.97-24.25 190.97-4.55Q191.78-3.7 192.95-3.08 194.13-2.45 195.58-2.45ZM211.82 9.5L208.17 9.5 208.17-28.9 211.82-28.9 211.82-26.5Q212.72-27.6 214.07-28.48 215.42-29.35 217.37-29.35L217.37-29.35Q219.47-29.35 220.75-28.38 222.02-27.4 222.72-25.75 223.42-24.1 223.67-22.05 223.92-20 223.92-17.85L223.92-17.85 223.92-11.75Q223.92-8.05 223.32-5.33 222.72-2.6 221.2-1.07 219.67 0.45 216.97 0.45L216.97 0.45Q215.22 0.45 213.95-0.45 212.67-1.35 211.82-2.3L211.82-2.3 211.82 9.5ZM216.42-2.45L216.42-2.45Q218.07-2.45 218.9-3.5 219.72-4.55 220-6.63 220.27-8.7 220.27-11.65L220.27-11.65 220.27-17.85Q220.27-20.65 220-22.58 219.72-24.5 218.87-25.5 218.02-26.5 216.32-26.5L216.32-26.5Q214.92-26.5 213.75-25.75 212.57-25 211.82-24.25L211.82-24.25 211.82-4.55Q212.62-3.7 213.8-3.08 214.97-2.45 216.42-2.45ZM236.17 0.45L236.17 0.45Q233.22 0.45 231.54-0.83 229.87-2.1 229.17-4.53 228.47-6.95 228.47-10.45L228.47-10.45 228.47-18.45Q228.47-21.95 229.17-24.38 229.87-26.8 231.54-28.08 233.22-29.35 236.17-29.35L236.17-29.35Q239.22-29.35 240.87-28.08 242.52-26.8 243.22-24.38 243.92-21.95 243.92-18.45L243.92-18.45 243.92-10.45Q243.92-6.95 243.22-4.53 242.52-2.1 240.87-0.83 239.22 0.45 236.17 0.45ZM236.17-2.3L236.17-2.3Q238.07-2.3 238.94-3.3 239.82-4.3 240.02-6.13 240.22-7.95 240.22-10.25L240.22-10.25 240.22-18.65Q240.22-21 240.02-22.78 239.82-24.55 238.94-25.58 238.07-26.6 236.17-26.6L236.17-26.6Q234.27-26.6 233.42-25.58 232.57-24.55 232.37-22.78 232.17-21 232.17-18.65L232.17-18.65 232.17-10.25Q232.17-7.95 232.37-6.13 232.57-4.3 233.42-3.3 234.27-2.3 236.17-2.3ZM252.92 0L249.22 0 249.22-28.9 252.92-28.9 252.92-24.95Q254.32-27.25 256.12-28.23 257.92-29.2 259.57-29.2L259.57-29.2Q259.72-29.2 259.87-29.2 260.02-29.2 260.22-29.15L260.22-29.15 260.22-25.25Q259.87-25.4 259.37-25.48 258.87-25.55 258.42-25.55L258.42-25.55Q256.72-25.55 255.34-24.75 253.97-23.95 252.92-22.2L252.92-22.2 252.92 0ZM270.67 0.35L270.67 0.35Q268.57 0.35 267.44-0.48 266.32-1.3 265.89-2.73 265.47-4.15 265.47-6L265.47-6 265.47-26.5 261.92-26.5 261.92-28.9 265.47-28.9 265.47-37.85 269.12-37.85 269.12-28.9 273.92-28.9 273.92-26.5 269.12-26.5 269.12-6.35Q269.12-4.25 269.59-3.38 270.07-2.5 271.67-2.5L271.67-2.5Q272.12-2.5 272.69-2.58 273.27-2.65 273.77-2.75L273.77-2.75 273.77 0.05Q273.02 0.2 272.22 0.28 271.42 0.35 270.67 0.35ZM294.61 0.45L294.61 0.45Q291.16 0.45 289.11-1.78 287.06-4 286.76-7.75L286.76-7.75 289.81-8.7Q290.11-5.35 291.36-3.83 292.61-2.3 294.86-2.3L294.86-2.3Q296.76-2.3 297.79-3.38 298.81-4.45 298.81-6.4L298.81-6.4Q298.81-7.8 297.96-9.22 297.11-10.65 295.31-12.2L295.31-12.2 291.36-15.6Q289.41-17.25 288.41-18.9 287.41-20.55 287.41-22.85L287.41-22.85Q287.41-24.95 288.29-26.38 289.16-27.8 290.71-28.58 292.26-29.35 294.31-29.35L294.31-29.35Q297.61-29.35 299.31-27.23 301.01-25.1 301.16-21.75L301.16-21.75 298.56-20.9Q298.46-22.85 297.96-24.13 297.46-25.4 296.59-26 295.71-26.6 294.46-26.6L294.46-26.6Q292.81-26.6 291.79-25.68 290.76-24.75 290.76-23.1L290.76-23.1Q290.76-21.8 291.26-20.8 291.76-19.8 293.11-18.55L293.11-18.55 297.21-14.9Q298.41-13.85 299.51-12.65 300.61-11.45 301.31-9.98 302.01-8.5 302.01-6.5L302.01-6.5Q302.01-4.25 301.09-2.73 300.16-1.2 298.51-0.38 296.86 0.45 294.61 0.45ZM313.31 0.45L313.31 0.45Q310.36 0.45 308.68-0.83 307.01-2.1 306.31-4.53 305.61-6.95 305.61-10.45L305.61-10.45 305.61-18.45Q305.61-21.95 306.31-24.38 307.01-26.8 308.68-28.08 310.36-29.35 313.31-29.35L313.31-29.35Q316.36-29.35 318.01-28.08 319.66-26.8 320.36-24.38 321.06-21.95 321.06-18.45L321.06-18.45 321.06-10.45Q321.06-6.95 320.36-4.53 319.66-2.1 318.01-0.83 316.36 0.45 313.31 0.45ZM313.31-2.3L313.31-2.3Q315.21-2.3 316.08-3.3 316.96-4.3 317.16-6.13 317.36-7.95 317.36-10.25L317.36-10.25 317.36-18.65Q317.36-21 317.16-22.78 316.96-24.55 316.08-25.58 315.21-26.6 313.31-26.6L313.31-26.6Q311.41-26.6 310.56-25.58 309.71-24.55 309.51-22.78 309.31-21 309.31-18.65L309.31-18.65 309.31-10.25Q309.31-7.95 309.51-6.13 309.71-4.3 310.56-3.3 311.41-2.3 313.31-2.3ZM330.25 0L326.61 0 326.61-40.5 330.25-40.5 330.25 0ZM340.45 0.45L340.45 0.45Q339 0.45 338-0.3 337-1.05 336.48-2.4 335.95-3.75 335.95-5.7L335.95-5.7 335.95-28.9 339.65-28.9 339.65-6.5Q339.65-4.25 340.33-3.35 341-2.45 342.4-2.45L342.4-2.45Q343.7-2.45 345.03-3.25 346.35-4.05 347.5-5.3L347.5-5.3 347.5-28.9 351.15-28.9 351.15 0 347.5 0 347.5-3.2Q346.1-1.6 344.3-0.58 342.5 0.45 340.45 0.45ZM363.65 0.35L363.65 0.35Q361.55 0.35 360.43-0.48 359.3-1.3 358.88-2.73 358.45-4.15 358.45-6L358.45-6 358.45-26.5 354.9-26.5 354.9-28.9 358.45-28.9 358.45-37.85 362.1-37.85 362.1-28.9 366.9-28.9 366.9-26.5 362.1-26.5 362.1-6.35Q362.1-4.25 362.58-3.38 363.05-2.5 364.65-2.5L364.65-2.5Q365.1-2.5 365.68-2.58 366.25-2.65 366.75-2.75L366.75-2.75 366.75 0.05Q366 0.2 365.2 0.28 364.4 0.35 363.65 0.35ZM374.85 0L371.2 0 371.2-28.9 374.85-28.9 374.85 0ZM374.85-32.9L371.2-32.9 371.2-37.85 374.85-37.85 374.85-32.9ZM388.15 0.45L388.15 0.45Q385.2 0.45 383.52-0.83 381.85-2.1 381.15-4.53 380.45-6.95 380.45-10.45L380.45-10.45 380.45-18.45Q380.45-21.95 381.15-24.38 381.85-26.8 383.52-28.08 385.2-29.35 388.15-29.35L388.15-29.35Q391.2-29.35 392.85-28.08 394.5-26.8 395.2-24.38 395.9-21.95 395.9-18.45L395.9-18.45 395.9-10.45Q395.9-6.95 395.2-4.53 394.5-2.1 392.85-0.83 391.2 0.45 388.15 0.45ZM388.15-2.3L388.15-2.3Q390.05-2.3 390.92-3.3 391.8-4.3 392-6.13 392.2-7.95 392.2-10.25L392.2-10.25 392.2-18.65Q392.2-21 392-22.78 391.8-24.55 390.92-25.58 390.05-26.6 388.15-26.6L388.15-26.6Q386.25-26.6 385.4-25.58 384.55-24.55 384.35-22.78 384.15-21 384.15-18.65L384.15-18.65 384.15-10.25Q384.15-7.95 384.35-6.13 384.55-4.3 385.4-3.3 386.25-2.3 388.15-2.3ZM404.59 0L400.94 0 400.94-28.9 404.59-28.9 404.59-25.9Q405.99-27.4 407.74-28.38 409.49-29.35 411.54-29.35L411.54-29.35Q412.99-29.35 413.99-28.63 414.99-27.9 415.49-26.53 415.99-25.15 415.99-23.2L415.99-23.2 415.99 0 412.34 0 412.34-22.4Q412.34-24.65 411.67-25.58 410.99-26.5 409.59-26.5L409.59-26.5Q408.34-26.5 407.04-25.75 405.74-25 404.59-23.8L404.59-23.8 404.59 0Z" opacity="1" transform="matrix(1,0,0,1,0,0)" fill="#77d4fc" class="slogan-text-1" data-fill-palette-color="secondary" id="text-1"></path></svg></g></svg></g></svg></g></svg></g></svg></g><defs></defs></svg><rect width="395.52" height="68.84471398520877" fill="none" stroke="none" visibility="hidden"></rect></g></svg></g></svg>